<svg xmlns="http://www.w3.org/2000/svg" xmlns:xlink="http://www.w3.org/1999/xlink" width="600" zoomAndPan="magnify" viewBox="0 0 450 207.75" height="277" preserveAspectRatio="xMidYMid meet" version="1.0"><defs><g/></defs><g fill="#ef3e54" fill-opacity="0.4"><g transform="translate(37.453653, 153.126171)"><g><path d="M 9.019531 0 L 97.429688 0 L 97.429688 -39.695312 L 55.933594 -39.695312 L 55.933594 -129.910156 L 9.019531 -129.910156 Z M 9.019531 0 "/></g></g></g><g fill="#ef3e54" fill-opacity="0.4"><g transform="translate(141.74111, 153.126171)"><g><path d="M 26.160156 -101.039062 C 39.695312 -101.039062 48.714844 -109.699219 48.714844 -122.691406 C 48.714844 -135.683594 39.695312 -144.34375 26.160156 -144.34375 C 12.628906 -144.34375 3.609375 -135.683594 3.609375 -122.691406 C 3.609375 -109.699219 12.628906 -101.039062 26.160156 -101.039062 Z M 5.414062 0 L 46.910156 0 L 46.910156 -93.824219 L 5.414062 -93.824219 Z M 5.414062 0 "/></g></g></g><g fill="#ef3e54" fill-opacity="1"><g transform="translate(30.226844, 148.953771)"><g><path d="M 9.019531 0 L 97.429688 0 L 97.429688 -39.695312 L 55.933594 -39.695312 L 55.933594 -129.910156 L 9.019531 -129.910156 Z M 9.019531 0 "/></g></g></g><g fill="#ef3e54" fill-opacity="1"><g transform="translate(134.514301, 148.953771)"><g><path d="M 26.160156 -101.039062 C 39.695312 -101.039062 48.714844 -109.699219 48.714844 -122.691406 C 48.714844 -135.683594 39.695312 -144.34375 26.160156 -144.34375 C 12.628906 -144.34375 3.609375 -135.683594 3.609375 -122.691406 C 3.609375 -109.699219 12.628906 -101.039062 26.160156 -101.039062 Z M 5.414062 0 L 46.910156 0 L 46.910156 -93.824219 L 5.414062 -93.824219 Z M 5.414062 0 "/></g></g></g><g fill="#ef3e54" fill-opacity="0.4"><g transform="translate(197.308321, 153.126171)"><g><path d="M 56.835938 3.609375 C 89.492188 3.609375 110.964844 -16.417969 110.964844 -46.910156 C 110.964844 -77.402344 89.492188 -97.429688 56.835938 -97.429688 C 24.175781 -97.429688 2.707031 -77.402344 2.707031 -46.910156 C 2.707031 -16.417969 24.175781 3.609375 56.835938 3.609375 Z M 56.835938 -29.769531 C 48.355469 -29.769531 43.304688 -36.085938 43.304688 -46.910156 C 43.304688 -57.738281 48.355469 -64.050781 56.835938 -64.050781 C 65.316406 -64.050781 70.367188 -57.738281 70.367188 -46.910156 C 70.367188 -36.085938 65.316406 -29.769531 56.835938 -29.769531 Z M 56.835938 -29.769531 "/></g></g></g><g fill="#ef3e54" fill-opacity="0.4"><g transform="translate(314.225734, 153.126171)"><g><path d="M 59.542969 3.609375 C 70.726562 3.609375 83.71875 0.722656 94.183594 -4.332031 L 88.769531 -34.28125 C 81.734375 -30.3125 77.945312 -28.867188 70.726562 -28.867188 C 64.230469 -28.867188 57.917969 -33.738281 57.917969 -43.84375 L 57.917969 -63.148438 L 90.394531 -63.148438 L 90.394531 -93.824219 L 57.917969 -93.824219 L 57.917969 -126.300781 L 16.417969 -117.277344 L 16.417969 -93.824219 L 1.984375 -93.824219 L 1.984375 -63.148438 L 16.417969 -63.148438 L 16.417969 -36.625 C 16.417969 -11.367188 32.476562 3.609375 59.542969 3.609375 Z M 59.542969 3.609375 "/></g></g></g><g fill="#fde1a3" fill-opacity="1"><g transform="translate(190.081512, 148.953771)"><g><path d="M 56.835938 3.609375 C 89.492188 3.609375 110.964844 -16.417969 110.964844 -46.910156 C 110.964844 -77.402344 89.492188 -97.429688 56.835938 -97.429688 C 24.175781 -97.429688 2.707031 -77.402344 2.707031 -46.910156 C 2.707031 -16.417969 24.175781 3.609375 56.835938 3.609375 Z M 56.835938 -29.769531 C 48.355469 -29.769531 43.304688 -36.085938 43.304688 -46.910156 C 43.304688 -57.738281 48.355469 -64.050781 56.835938 -64.050781 C 65.316406 -64.050781 70.367188 -57.738281 70.367188 -46.910156 C 70.367188 -36.085938 65.316406 -29.769531 56.835938 -29.769531 Z M 56.835938 -29.769531 "/></g></g></g><g fill="#fde1a3" fill-opacity="1"><g transform="translate(306.998925, 148.953771)"><g><path d="M 59.542969 3.609375 C 70.726562 3.609375 83.71875 0.722656 94.183594 -4.332031 L 88.769531 -34.28125 C 81.734375 -30.3125 77.945312 -28.867188 70.726562 -28.867188 C 64.230469 -28.867188 57.917969 -33.738281 57.917969 -43.84375 L 57.917969 -63.148438 L 90.394531 -63.148438 L 90.394531 -93.824219 L 57.917969 -93.824219 L 57.917969 -126.300781 L 16.417969 -117.277344 L 16.417969 -93.824219 L 1.984375 -93.824219 L 1.984375 -63.148438 L 16.417969 -63.148438 L 16.417969 -36.625 C 16.417969 -11.367188 32.476562 3.609375 59.542969 3.609375 Z M 59.542969 3.609375 "/></g></g></g><g fill="#ffffff" fill-opacity="1"><g transform="translate(15.759749, 193.462983)"><g><path d="M 3.25 0 L 3.25 -25.796875 L 8.71875 -25.796875 L 8.71875 -4.515625 L 19.1875 -4.515625 L 19.1875 0 Z M 3.25 0 "/></g></g></g><g fill="#ffffff" fill-opacity="1"><g transform="translate(36.177711, 193.462983)"><g><path d="M 2.59375 -24.828125 C 2.59375 -26.578125 3.570312 -27.453125 5.53125 -27.453125 C 7.476562 -27.453125 8.453125 -26.578125 8.453125 -24.828125 C 8.453125 -23.992188 8.207031 -23.34375 7.71875 -22.875 C 7.226562 -22.414062 6.5 -22.1875 5.53125 -22.1875 C 3.570312 -22.1875 2.59375 -23.066406 2.59375 -24.828125 Z M 8.203125 0 L 2.828125 0 L 2.828125 -19.734375 L 8.203125 -19.734375 Z M 8.203125 0 "/></g></g></g><g fill="#ffffff" fill-opacity="1"><g transform="translate(47.207293, 193.462983)"><g><path d="M 11.140625 -3.9375 C 12.078125 -3.9375 13.203125 -4.140625 14.515625 -4.546875 L 14.515625 -0.546875 C 13.179688 0.0546875 11.535156 0.359375 9.578125 0.359375 C 7.429688 0.359375 5.863281 -0.179688 4.875 -1.265625 C 3.894531 -2.359375 3.40625 -3.992188 3.40625 -6.171875 L 3.40625 -15.6875 L 0.828125 -15.6875 L 0.828125 -17.96875 L 3.796875 -19.765625 L 5.34375 -23.921875 L 8.78125 -23.921875 L 8.78125 -19.734375 L 14.3125 -19.734375 L 14.3125 -15.6875 L 8.78125 -15.6875 L 8.78125 -6.171875 C 8.78125 -5.410156 8.992188 -4.847656 9.421875 -4.484375 C 9.859375 -4.117188 10.429688 -3.9375 11.140625 -3.9375 Z M 11.140625 -3.9375 "/></g></g></g><g fill="#ffffff" fill-opacity="1"><g transform="translate(62.89577, 193.462983)"><g><path d="M 11 -16.265625 C 9.851562 -16.265625 8.957031 -15.898438 8.3125 -15.171875 C 7.664062 -14.453125 7.296875 -13.429688 7.203125 -12.109375 L 14.75 -12.109375 C 14.726562 -13.429688 14.378906 -14.453125 13.703125 -15.171875 C 13.035156 -15.898438 12.132812 -16.265625 11 -16.265625 Z M 11.75 0.359375 C 8.570312 0.359375 6.085938 -0.515625 4.296875 -2.265625 C 2.515625 -4.023438 1.625 -6.507812 1.625 -9.71875 C 1.625 -13.03125 2.445312 -15.585938 4.09375 -17.390625 C 5.75 -19.191406 8.035156 -20.09375 10.953125 -20.09375 C 13.742188 -20.09375 15.914062 -19.296875 17.46875 -17.703125 C 19.019531 -16.117188 19.796875 -13.929688 19.796875 -11.140625 L 19.796875 -8.515625 L 7.078125 -8.515625 C 7.140625 -6.992188 7.59375 -5.800781 8.4375 -4.9375 C 9.28125 -4.082031 10.46875 -3.65625 12 -3.65625 C 13.1875 -3.65625 14.304688 -3.773438 15.359375 -4.015625 C 16.421875 -4.265625 17.53125 -4.660156 18.6875 -5.203125 L 18.6875 -1.046875 C 17.75 -0.566406 16.742188 -0.210938 15.671875 0.015625 C 14.597656 0.242188 13.289062 0.359375 11.75 0.359375 Z M 11.75 0.359375 "/></g></g></g><g fill="#ffffff" fill-opacity="1"><g transform="translate(84.249041, 193.462983)"><g><path d="M 13.828125 -20.09375 C 14.554688 -20.09375 15.164062 -20.039062 15.65625 -19.9375 L 15.25 -14.890625 C 14.8125 -15.015625 14.28125 -15.078125 13.65625 -15.078125 C 11.9375 -15.078125 10.597656 -14.632812 9.640625 -13.75 C 8.679688 -12.863281 8.203125 -11.628906 8.203125 -10.046875 L 8.203125 0 L 2.828125 0 L 2.828125 -19.734375 L 6.90625 -19.734375 L 7.6875 -16.40625 L 7.953125 -16.40625 C 8.566406 -17.519531 9.394531 -18.410156 10.4375 -19.078125 C 11.476562 -19.753906 12.609375 -20.09375 13.828125 -20.09375 Z M 13.828125 -20.09375 "/></g></g></g><g fill="#ffffff" fill-opacity="1"><g transform="translate(100.661059, 193.462983)"><g><path d="M 15.359375 0 L 14.3125 -2.6875 L 14.171875 -2.6875 C 13.265625 -1.539062 12.332031 -0.742188 11.375 -0.296875 C 10.414062 0.140625 9.164062 0.359375 7.625 0.359375 C 5.726562 0.359375 4.234375 -0.179688 3.140625 -1.265625 C 2.054688 -2.347656 1.515625 -3.890625 1.515625 -5.890625 C 1.515625 -7.984375 2.242188 -9.523438 3.703125 -10.515625 C 5.171875 -11.515625 7.382812 -12.066406 10.34375 -12.171875 L 13.765625 -12.28125 L 13.765625 -13.140625 C 13.765625 -15.140625 12.738281 -16.140625 10.6875 -16.140625 C 9.113281 -16.140625 7.265625 -15.664062 5.140625 -14.71875 L 3.359375 -18.359375 C 5.628906 -19.546875 8.144531 -20.140625 10.90625 -20.140625 C 13.550781 -20.140625 15.578125 -19.5625 16.984375 -18.40625 C 18.398438 -17.25 19.109375 -15.492188 19.109375 -13.140625 L 19.109375 0 Z M 13.765625 -9.140625 L 11.6875 -9.078125 C 10.113281 -9.023438 8.945312 -8.738281 8.1875 -8.21875 C 7.425781 -7.707031 7.046875 -6.921875 7.046875 -5.859375 C 7.046875 -4.335938 7.914062 -3.578125 9.65625 -3.578125 C 10.894531 -3.578125 11.890625 -3.9375 12.640625 -4.65625 C 13.390625 -5.375 13.765625 -6.328125 13.765625 -7.515625 Z M 13.765625 -9.140625 "/></g></g></g><g fill="#ffffff" fill-opacity="1"><g transform="translate(122.490807, 193.462983)"><g><path d="M 11.140625 -3.9375 C 12.078125 -3.9375 13.203125 -4.140625 14.515625 -4.546875 L 14.515625 -0.546875 C 13.179688 0.0546875 11.535156 0.359375 9.578125 0.359375 C 7.429688 0.359375 5.863281 -0.179688 4.875 -1.265625 C 3.894531 -2.359375 3.40625 -3.992188 3.40625 -6.171875 L 3.40625 -15.6875 L 0.828125 -15.6875 L 0.828125 -17.96875 L 3.796875 -19.765625 L 5.34375 -23.921875 L 8.78125 -23.921875 L 8.78125 -19.734375 L 14.3125 -19.734375 L 14.3125 -15.6875 L 8.78125 -15.6875 L 8.78125 -6.171875 C 8.78125 -5.410156 8.992188 -4.847656 9.421875 -4.484375 C 9.859375 -4.117188 10.429688 -3.9375 11.140625 -3.9375 Z M 11.140625 -3.9375 "/></g></g></g><g fill="#ffffff" fill-opacity="1"><g transform="translate(138.179284, 193.462983)"><g><path d="M 16.796875 0 L 16.078125 -2.53125 L 15.796875 -2.53125 C 15.210938 -1.601562 14.390625 -0.890625 13.328125 -0.390625 C 12.273438 0.109375 11.070312 0.359375 9.71875 0.359375 C 7.40625 0.359375 5.660156 -0.257812 4.484375 -1.5 C 3.304688 -2.75 2.71875 -4.535156 2.71875 -6.859375 L 2.71875 -19.734375 L 8.09375 -19.734375 L 8.09375 -8.203125 C 8.09375 -6.785156 8.347656 -5.71875 8.859375 -5 C 9.367188 -4.289062 10.175781 -3.9375 11.28125 -3.9375 C 12.78125 -3.9375 13.863281 -4.4375 14.53125 -5.4375 C 15.207031 -6.445312 15.546875 -8.117188 15.546875 -10.453125 L 15.546875 -19.734375 L 20.921875 -19.734375 L 20.921875 0 Z M 16.796875 0 "/></g></g></g><g fill="#ffffff" fill-opacity="1"><g transform="translate(161.932592, 193.462983)"><g><path d="M 13.828125 -20.09375 C 14.554688 -20.09375 15.164062 -20.039062 15.65625 -19.9375 L 15.25 -14.890625 C 14.8125 -15.015625 14.28125 -15.078125 13.65625 -15.078125 C 11.9375 -15.078125 10.597656 -14.632812 9.640625 -13.75 C 8.679688 -12.863281 8.203125 -11.628906 8.203125 -10.046875 L 8.203125 0 L 2.828125 0 L 2.828125 -19.734375 L 6.90625 -19.734375 L 7.6875 -16.40625 L 7.953125 -16.40625 C 8.566406 -17.519531 9.394531 -18.410156 10.4375 -19.078125 C 11.476562 -19.753906 12.609375 -20.09375 13.828125 -20.09375 Z M 13.828125 -20.09375 "/></g></g></g><g fill="#ffffff" fill-opacity="1"><g transform="translate(178.34461, 193.462983)"><g><path d="M 15.359375 0 L 14.3125 -2.6875 L 14.171875 -2.6875 C 13.265625 -1.539062 12.332031 -0.742188 11.375 -0.296875 C 10.414062 0.140625 9.164062 0.359375 7.625 0.359375 C 5.726562 0.359375 4.234375 -0.179688 3.140625 -1.265625 C 2.054688 -2.347656 1.515625 -3.890625 1.515625 -5.890625 C 1.515625 -7.984375 2.242188 -9.523438 3.703125 -10.515625 C 5.171875 -11.515625 7.382812 -12.066406 10.34375 -12.171875 L 13.765625 -12.28125 L 13.765625 -13.140625 C 13.765625 -15.140625 12.738281 -16.140625 10.6875 -16.140625 C 9.113281 -16.140625 7.265625 -15.664062 5.140625 -14.71875 L 3.359375 -18.359375 C 5.628906 -19.546875 8.144531 -20.140625 10.90625 -20.140625 C 13.550781 -20.140625 15.578125 -19.5625 16.984375 -18.40625 C 18.398438 -17.25 19.109375 -15.492188 19.109375 -13.140625 L 19.109375 0 Z M 13.765625 -9.140625 L 11.6875 -9.078125 C 10.113281 -9.023438 8.945312 -8.738281 8.1875 -8.21875 C 7.425781 -7.707031 7.046875 -6.921875 7.046875 -5.859375 C 7.046875 -4.335938 7.914062 -3.578125 9.65625 -3.578125 C 10.894531 -3.578125 11.890625 -3.9375 12.640625 -4.65625 C 13.390625 -5.375 13.765625 -6.328125 13.765625 -7.515625 Z M 13.765625 -9.140625 "/></g></g></g><g fill="#ffffff" fill-opacity="1"><g transform="translate(200.174358, 193.462983)"><g/></g></g><g fill="#ffffff" fill-opacity="1"><g transform="translate(209.562738, 193.462983)"><g><path d="M 27.109375 0 L 20.453125 0 L 18.421875 -2 C 16.171875 -0.425781 13.628906 0.359375 10.796875 0.359375 C 7.929688 0.359375 5.65625 -0.296875 3.96875 -1.609375 C 2.289062 -2.929688 1.453125 -4.71875 1.453125 -6.96875 C 1.453125 -8.582031 1.804688 -9.957031 2.515625 -11.09375 C 3.222656 -12.226562 4.441406 -13.289062 6.171875 -14.28125 C 5.296875 -15.289062 4.65625 -16.253906 4.25 -17.171875 C 3.851562 -18.097656 3.65625 -19.109375 3.65625 -20.203125 C 3.65625 -21.992188 4.335938 -23.4375 5.703125 -24.53125 C 7.078125 -25.625 8.910156 -26.171875 11.203125 -26.171875 C 13.390625 -26.171875 15.140625 -25.660156 16.453125 -24.640625 C 17.765625 -23.628906 18.421875 -22.269531 18.421875 -20.5625 C 18.421875 -19.15625 18.015625 -17.875 17.203125 -16.71875 C 16.390625 -15.5625 15.078125 -14.457031 13.265625 -13.40625 L 18.28125 -8.515625 C 19.113281 -9.898438 19.835938 -11.671875 20.453125 -13.828125 L 26.0625 -13.828125 C 25.632812 -12.242188 25.050781 -10.695312 24.3125 -9.1875 C 23.570312 -7.675781 22.734375 -6.335938 21.796875 -5.171875 Z M 7.109375 -7.484375 C 7.109375 -6.472656 7.488281 -5.664062 8.25 -5.0625 C 9.007812 -4.46875 9.984375 -4.171875 11.171875 -4.171875 C 12.648438 -4.171875 13.984375 -4.523438 15.171875 -5.234375 L 9.3125 -11.0625 C 8.632812 -10.539062 8.097656 -10 7.703125 -9.4375 C 7.304688 -8.875 7.109375 -8.222656 7.109375 -7.484375 Z M 13.453125 -20 C 13.453125 -20.613281 13.238281 -21.097656 12.8125 -21.453125 C 12.382812 -21.816406 11.835938 -22 11.171875 -22 C 10.378906 -22 9.753906 -21.8125 9.296875 -21.4375 C 8.847656 -21.0625 8.625 -20.523438 8.625 -19.828125 C 8.625 -18.796875 9.1875 -17.65625 10.3125 -16.40625 C 11.320312 -16.976562 12.097656 -17.535156 12.640625 -18.078125 C 13.179688 -18.628906 13.453125 -19.269531 13.453125 -20 Z M 13.453125 -20 "/></g></g></g><g fill="#ffffff" fill-opacity="1"><g transform="translate(236.669038, 193.462983)"><g/></g></g><g fill="#ffffff" fill-opacity="1"><g transform="translate(246.057419, 193.462983)"><g><path d="M 7.109375 -9.90625 C 7.109375 -7.945312 7.425781 -6.46875 8.0625 -5.46875 C 8.707031 -4.46875 9.753906 -3.96875 11.203125 -3.96875 C 12.640625 -3.96875 13.671875 -4.460938 14.296875 -5.453125 C 14.929688 -6.453125 15.25 -7.9375 15.25 -9.90625 C 15.25 -11.851562 14.929688 -13.316406 14.296875 -14.296875 C 13.660156 -15.273438 12.617188 -15.765625 11.171875 -15.765625 C 9.734375 -15.765625 8.695312 -15.273438 8.0625 -14.296875 C 7.425781 -13.328125 7.109375 -11.863281 7.109375 -9.90625 Z M 20.75 -9.90625 C 20.75 -6.6875 19.898438 -4.171875 18.203125 -2.359375 C 16.515625 -0.546875 14.160156 0.359375 11.140625 0.359375 C 9.242188 0.359375 7.570312 -0.0546875 6.125 -0.890625 C 4.675781 -1.722656 3.5625 -2.914062 2.78125 -4.46875 C 2.007812 -6.019531 1.625 -7.832031 1.625 -9.90625 C 1.625 -13.125 2.460938 -15.625 4.140625 -17.40625 C 5.828125 -19.195312 8.191406 -20.09375 11.234375 -20.09375 C 13.128906 -20.09375 14.800781 -19.679688 16.25 -18.859375 C 17.695312 -18.035156 18.804688 -16.851562 19.578125 -15.3125 C 20.359375 -13.769531 20.75 -11.96875 20.75 -9.90625 Z M 20.75 -9.90625 "/></g></g></g><g fill="#ffffff" fill-opacity="1"><g transform="translate(268.434234, 193.462983)"><g><path d="M 13.828125 -20.09375 C 14.554688 -20.09375 15.164062 -20.039062 15.65625 -19.9375 L 15.25 -14.890625 C 14.8125 -15.015625 14.28125 -15.078125 13.65625 -15.078125 C 11.9375 -15.078125 10.597656 -14.632812 9.640625 -13.75 C 8.679688 -12.863281 8.203125 -11.628906 8.203125 -10.046875 L 8.203125 0 L 2.828125 0 L 2.828125 -19.734375 L 6.90625 -19.734375 L 7.6875 -16.40625 L 7.953125 -16.40625 C 8.566406 -17.519531 9.394531 -18.410156 10.4375 -19.078125 C 11.476562 -19.753906 12.609375 -20.09375 13.828125 -20.09375 Z M 13.828125 -20.09375 "/></g></g></g><g fill="#ffffff" fill-opacity="1"><g transform="translate(284.846252, 193.462983)"><g><path d="M 11.140625 -3.9375 C 12.078125 -3.9375 13.203125 -4.140625 14.515625 -4.546875 L 14.515625 -0.546875 C 13.179688 0.0546875 11.535156 0.359375 9.578125 0.359375 C 7.429688 0.359375 5.863281 -0.179688 4.875 -1.265625 C 3.894531 -2.359375 3.40625 -3.992188 3.40625 -6.171875 L 3.40625 -15.6875 L 0.828125 -15.6875 L 0.828125 -17.96875 L 3.796875 -19.765625 L 5.34375 -23.921875 L 8.78125 -23.921875 L 8.78125 -19.734375 L 14.3125 -19.734375 L 14.3125 -15.6875 L 8.78125 -15.6875 L 8.78125 -6.171875 C 8.78125 -5.410156 8.992188 -4.847656 9.421875 -4.484375 C 9.859375 -4.117188 10.429688 -3.9375 11.140625 -3.9375 Z M 11.140625 -3.9375 "/></g></g></g><g fill="#ffffff" fill-opacity="1"><g transform="translate(300.534729, 193.462983)"><g><path d="M 7.109375 -9.90625 C 7.109375 -7.945312 7.425781 -6.46875 8.0625 -5.46875 C 8.707031 -4.46875 9.753906 -3.96875 11.203125 -3.96875 C 12.640625 -3.96875 13.671875 -4.460938 14.296875 -5.453125 C 14.929688 -6.453125 15.25 -7.9375 15.25 -9.90625 C 15.25 -11.851562 14.929688 -13.316406 14.296875 -14.296875 C 13.660156 -15.273438 12.617188 -15.765625 11.171875 -15.765625 C 9.734375 -15.765625 8.695312 -15.273438 8.0625 -14.296875 C 7.425781 -13.328125 7.109375 -11.863281 7.109375 -9.90625 Z M 20.75 -9.90625 C 20.75 -6.6875 19.898438 -4.171875 18.203125 -2.359375 C 16.515625 -0.546875 14.160156 0.359375 11.140625 0.359375 C 9.242188 0.359375 7.570312 -0.0546875 6.125 -0.890625 C 4.675781 -1.722656 3.5625 -2.914062 2.78125 -4.46875 C 2.007812 -6.019531 1.625 -7.832031 1.625 -9.90625 C 1.625 -13.125 2.460938 -15.625 4.140625 -17.40625 C 5.828125 -19.195312 8.191406 -20.09375 11.234375 -20.09375 C 13.128906 -20.09375 14.800781 -19.679688 16.25 -18.859375 C 17.695312 -18.035156 18.804688 -16.851562 19.578125 -15.3125 C 20.359375 -13.769531 20.75 -11.96875 20.75 -9.90625 Z M 20.75 -9.90625 "/></g></g></g><g fill="#ffffff" fill-opacity="1"><g transform="translate(322.911544, 193.462983)"><g><path d="M 20 -19.734375 L 20 -17 L 16.90625 -16.203125 C 17.46875 -15.316406 17.75 -14.328125 17.75 -13.234375 C 17.75 -11.117188 17.007812 -9.46875 15.53125 -8.28125 C 14.0625 -7.101562 12.015625 -6.515625 9.390625 -6.515625 L 8.421875 -6.5625 L 7.625 -6.65625 C 7.070312 -6.226562 6.796875 -5.753906 6.796875 -5.234375 C 6.796875 -4.460938 7.785156 -4.078125 9.765625 -4.078125 L 13.109375 -4.078125 C 15.273438 -4.078125 16.925781 -3.609375 18.0625 -2.671875 C 19.195312 -1.742188 19.765625 -0.382812 19.765625 1.40625 C 19.765625 3.71875 18.800781 5.507812 16.875 6.78125 C 14.957031 8.050781 12.195312 8.6875 8.59375 8.6875 C 5.84375 8.6875 3.738281 8.207031 2.28125 7.25 C 0.832031 6.289062 0.109375 4.945312 0.109375 3.21875 C 0.109375 2.019531 0.476562 1.019531 1.21875 0.21875 C 1.957031 -0.570312 3.046875 -1.140625 4.484375 -1.484375 C 3.929688 -1.710938 3.445312 -2.09375 3.03125 -2.625 C 2.625 -3.164062 2.421875 -3.738281 2.421875 -4.34375 C 2.421875 -5.09375 2.632812 -5.71875 3.0625 -6.21875 C 3.5 -6.71875 4.128906 -7.207031 4.953125 -7.6875 C 3.921875 -8.132812 3.101562 -8.851562 2.5 -9.84375 C 1.894531 -10.832031 1.59375 -12 1.59375 -13.34375 C 1.59375 -15.5 2.289062 -17.160156 3.6875 -18.328125 C 5.082031 -19.503906 7.082031 -20.09375 9.6875 -20.09375 C 10.238281 -20.09375 10.894531 -20.039062 11.65625 -19.9375 C 12.414062 -19.84375 12.898438 -19.773438 13.109375 -19.734375 Z M 4.765625 2.78125 C 4.765625 3.53125 5.117188 4.113281 5.828125 4.53125 C 6.546875 4.957031 7.546875 5.171875 8.828125 5.171875 C 10.753906 5.171875 12.265625 4.90625 13.359375 4.375 C 14.453125 3.84375 15 3.117188 15 2.203125 C 15 1.460938 14.675781 0.953125 14.03125 0.671875 C 13.382812 0.390625 12.382812 0.25 11.03125 0.25 L 8.234375 0.25 C 7.253906 0.25 6.429688 0.476562 5.765625 0.9375 C 5.097656 1.40625 4.765625 2.019531 4.765625 2.78125 Z M 6.71875 -13.265625 C 6.71875 -12.203125 6.960938 -11.359375 7.453125 -10.734375 C 7.941406 -10.109375 8.6875 -9.796875 9.6875 -9.796875 C 10.695312 -9.796875 11.4375 -10.109375 11.90625 -10.734375 C 12.382812 -11.359375 12.625 -12.203125 12.625 -13.265625 C 12.625 -15.640625 11.644531 -16.828125 9.6875 -16.828125 C 7.707031 -16.828125 6.71875 -15.640625 6.71875 -13.265625 Z M 6.71875 -13.265625 "/></g></g></g><g fill="#ffffff" fill-opacity="1"><g transform="translate(343.329506, 193.462983)"><g><path d="M 13.828125 -20.09375 C 14.554688 -20.09375 15.164062 -20.039062 15.65625 -19.9375 L 15.25 -14.890625 C 14.8125 -15.015625 14.28125 -15.078125 13.65625 -15.078125 C 11.9375 -15.078125 10.597656 -14.632812 9.640625 -13.75 C 8.679688 -12.863281 8.203125 -11.628906 8.203125 -10.046875 L 8.203125 0 L 2.828125 0 L 2.828125 -19.734375 L 6.90625 -19.734375 L 7.6875 -16.40625 L 7.953125 -16.40625 C 8.566406 -17.519531 9.394531 -18.410156 10.4375 -19.078125 C 11.476562 -19.753906 12.609375 -20.09375 13.828125 -20.09375 Z M 13.828125 -20.09375 "/></g></g></g><g fill="#ffffff" fill-opacity="1"><g transform="translate(359.741524, 193.462983)"><g><path d="M 15.359375 0 L 14.3125 -2.6875 L 14.171875 -2.6875 C 13.265625 -1.539062 12.332031 -0.742188 11.375 -0.296875 C 10.414062 0.140625 9.164062 0.359375 7.625 0.359375 C 5.726562 0.359375 4.234375 -0.179688 3.140625 -1.265625 C 2.054688 -2.347656 1.515625 -3.890625 1.515625 -5.890625 C 1.515625 -7.984375 2.242188 -9.523438 3.703125 -10.515625 C 5.171875 -11.515625 7.382812 -12.066406 10.34375 -12.171875 L 13.765625 -12.28125 L 13.765625 -13.140625 C 13.765625 -15.140625 12.738281 -16.140625 10.6875 -16.140625 C 9.113281 -16.140625 7.265625 -15.664062 5.140625 -14.71875 L 3.359375 -18.359375 C 5.628906 -19.546875 8.144531 -20.140625 10.90625 -20.140625 C 13.550781 -20.140625 15.578125 -19.5625 16.984375 -18.40625 C 18.398438 -17.25 19.109375 -15.492188 19.109375 -13.140625 L 19.109375 0 Z M 13.765625 -9.140625 L 11.6875 -9.078125 C 10.113281 -9.023438 8.945312 -8.738281 8.1875 -8.21875 C 7.425781 -7.707031 7.046875 -6.921875 7.046875 -5.859375 C 7.046875 -4.335938 7.914062 -3.578125 9.65625 -3.578125 C 10.894531 -3.578125 11.890625 -3.9375 12.640625 -4.65625 C 13.390625 -5.375 13.765625 -6.328125 13.765625 -7.515625 Z M 13.765625 -9.140625 "/></g></g></g><g fill="#ffffff" fill-opacity="1"><g transform="translate(381.571273, 193.462983)"><g><path d="M 13.734375 -15.6875 L 9.078125 -15.6875 L 9.078125 0 L 3.6875 0 L 3.6875 -15.6875 L 0.71875 -15.6875 L 0.71875 -18.28125 L 3.6875 -19.734375 L 3.6875 -21.171875 C 3.6875 -23.421875 4.238281 -25.0625 5.34375 -26.09375 C 6.445312 -27.132812 8.21875 -27.65625 10.65625 -27.65625 C 12.519531 -27.65625 14.175781 -27.378906 15.625 -26.828125 L 14.234375 -22.875 C 13.160156 -23.207031 12.160156 -23.375 11.234375 -23.375 C 10.472656 -23.375 9.921875 -23.144531 9.578125 -22.6875 C 9.242188 -22.238281 9.078125 -21.664062 9.078125 -20.96875 L 9.078125 -19.734375 L 13.734375 -19.734375 Z M 13.734375 -15.6875 "/></g></g></g><g fill="#ffffff" fill-opacity="1"><g transform="translate(395.565606, 193.462983)"><g><path d="M 8.203125 0 L 2.828125 0 L 2.828125 -19.734375 L 8.203125 -19.734375 Z M 2.859375 -21.90625 L 2.859375 -22.375 C 4.878906 -24.726562 6.257812 -26.5 7 -27.6875 L 13.046875 -27.6875 L 13.046875 -27.3125 C 12.429688 -26.707031 11.382812 -25.800781 9.90625 -24.59375 C 8.425781 -23.382812 7.269531 -22.488281 6.4375 -21.90625 Z M 2.859375 -21.90625 "/></g></g></g><g fill="#ffffff" fill-opacity="1"><g transform="translate(406.595188, 193.462983)"><g><path d="M 15.359375 0 L 14.3125 -2.6875 L 14.171875 -2.6875 C 13.265625 -1.539062 12.332031 -0.742188 11.375 -0.296875 C 10.414062 0.140625 9.164062 0.359375 7.625 0.359375 C 5.726562 0.359375 4.234375 -0.179688 3.140625 -1.265625 C 2.054688 -2.347656 1.515625 -3.890625 1.515625 -5.890625 C 1.515625 -7.984375 2.242188 -9.523438 3.703125 -10.515625 C 5.171875 -11.515625 7.382812 -12.066406 10.34375 -12.171875 L 13.765625 -12.28125 L 13.765625 -13.140625 C 13.765625 -15.140625 12.738281 -16.140625 10.6875 -16.140625 C 9.113281 -16.140625 7.265625 -15.664062 5.140625 -14.71875 L 3.359375 -18.359375 C 5.628906 -19.546875 8.144531 -20.140625 10.90625 -20.140625 C 13.550781 -20.140625 15.578125 -19.5625 16.984375 -18.40625 C 18.398438 -17.25 19.109375 -15.492188 19.109375 -13.140625 L 19.109375 0 Z M 13.765625 -9.140625 L 11.6875 -9.078125 C 10.113281 -9.023438 8.945312 -8.738281 8.1875 -8.21875 C 7.425781 -7.707031 7.046875 -6.921875 7.046875 -5.859375 C 7.046875 -4.335938 7.914062 -3.578125 9.65625 -3.578125 C 10.894531 -3.578125 11.890625 -3.9375 12.640625 -4.65625 C 13.390625 -5.375 13.765625 -6.328125 13.765625 -7.515625 Z M 13.765625 -9.140625 "/></g></g></g></svg>